

<svg id="Layer_5" enable-background="new 0 0 64 64" height="512" viewBox="0 0 64 64" width="512" xmlns="http://www.w3.org/2000/svg" fill="#116bf8">
    <g><path d="m24 43h-1.184c.112-.314.184-.648.184-1v-2c0-1.654-1.346-3-3-3h-16c-1.654 0-3 1.346-3 3v2c0 1.654 1.346 3 3 3h1.184c-.112.314-.184.648-.184 1v2c0 .352.072.686.184 1h-1.184c-1.654 0-3 1.346-3 3v2c0 1.654 1.346 3 3 3h1.184c-.112.314-.184.648-.184 1v2c0 1.654 1.346 3 3 3h16c1.654 0 3-1.346 3-3v-2c0-1.654-1.346-3-3-3h-1.184c.112-.314.184-.648.184-1v-2c0-.352-.072-.686-.184-1h1.184c1.654 0 3-1.346 3-3v-2c0-1.654-1.346-3-3-3zm-21-1v-2c0-.552.448-1 1-1h1v2h2v-2h2v2h2v-2h2v2h2v-2h2v2h2v-2h1c.552 0 1 .448 1 1v2c0 .552-.448 1-1 1h-12-4c-.552 0-1-.448-1-1zm22 16v2c0 .552-.448 1-1 1h-16c-.552 0-1-.448-1-1v-2c0-.552.448-1 1-1h1v2h2v-2h2v2h2v-2h2v2h2v-2h1 1v2h2v-2h1c.552 0 1 .448 1 1zm-4-6v2c0 .552-.448 1-1 1h-12-4c-.552 0-1-.448-1-1v-2c0-.552.448-1 1-1h1v2h2v-2h1 1v2h2v-2h2v2h2v-2h2v2h2v-2h1c.552 0 1 .448 1 1zm4-4c0 .552-.448 1-1 1h-4-12c-.552 0-1-.448-1-1v-2c0-.552.448-1 1-1h1v2h2v-2h2v2h2v-2h2v2h2v-2h1 1v2h2v-2h1c.552 0 1 .448 1 1z"/><path d="m57.192 29.222c2.455-2.456 3.808-5.721 3.808-9.222 0-7.168-5.832-13-13-13s-13 5.832-13 13.029c0 3.472 1.353 6.736 3.808 9.192l.364.364c.988.988 1.598 2.251 1.772 3.616-1.133.43-1.944 1.518-1.944 2.799 0 1.322.865 2.434 2.054 2.833.194 1.624.944 3.079 2.056 4.167h-3.11c-1.654 0-3 1.346-3 3v2c0 .352.072.686.184 1h-1.184c-1.654 0-3 1.346-3 3v2c0 1.654 1.346 3 3 3h1.184c-.112.314-.184.648-.184 1v2c0 1.654 1.346 3 3 3h16c1.654 0 3-1.346 3-3v-2c0-1.654-1.346-3-3-3h-1.184c.112-.314.184-.648.184-1v-2c0-.352-.072-.686-.184-1h1.184c1.654 0 3-1.346 3-3v-2c0-1.654-1.346-3-3-3h-3.111c1.113-1.088 1.863-2.543 2.056-4.167 1.19-.399 2.055-1.511 2.055-2.833 0-1.281-.811-2.369-1.944-2.798.173-1.365.783-2.628 1.772-3.616zm-.192 28.778v2c0 .552-.448 1-1 1h-16c-.552 0-1-.448-1-1v-2c0-.552.448-1 1-1h1v2h2v-2h2v2h2v-2h2v2h2v-2h1 1v2h2v-2h1c.552 0 1 .448 1 1zm-4-6v2c0 .552-.448 1-1 1h-12-4c-.552 0-1-.448-1-1v-2c0-.552.448-1 1-1h1v2h2v-2h1 1v2h2v-2h2v2h2v-2h2v2h2v-2h1c.552 0 1 .448 1 1zm4-6v2c0 .552-.448 1-1 1h-4-12c-.552 0-1-.448-1-1v-2c0-.552.448-1 1-1h1v2h2v-2h2v2h2v-2h2v2h2v-2h2v2h2v-2h1c.552 0 1 .448 1 1zm-13.899-7h9.798c-.465 2.279-2.484 4-4.899 4s-4.434-1.721-4.899-4zm10.899-2h-12c-.552 0-1-.448-1-1s.448-1 1-1h12c.552 0 1 .448 1 1s-.448 1-1 1zm1.414-8.828c-1.318 1.318-2.128 3.005-2.347 4.828h-10.134c-.219-1.823-1.029-3.51-2.347-4.828l-.364-.364c-2.077-2.079-3.222-4.841-3.222-7.808 0-6.065 4.935-11 11-11s11 4.935 11 11.029c0 2.938-1.145 5.7-3.222 7.778z"/><path d="m47 1h2v4h-2z"/><path d="m34.5 5.379h2v4.243h-2z" transform="matrix(.707 -.707 .707 .707 5.094 27.299)"/><path d="m58.379 6.5h4.243v2h-4.243z" transform="matrix(.707 -.707 .707 .707 12.417 44.977)"/><path d="m49 14.117v-2.117h-2v2.117c-1.716.411-3 1.948-3 3.789 0 1.684 1.073 3.172 2.671 3.705l2.025.676c.78.26 1.304.986 1.304 1.808 0 1.05-.854 1.905-1.905 1.905h-.189c-1.052 0-1.906-.855-1.906-1.906v-2.094h-2v2.094c0 1.841 1.284 3.378 3 3.789v2.117h2v-2.117c1.716-.411 3-1.948 3-3.789 0-1.684-1.073-3.172-2.671-3.705l-2.025-.676c-.781-.259-1.304-.986-1.304-1.807 0-1.051.854-1.906 1.905-1.906h.189c1.052 0 1.906.855 1.906 1.906v1.094h2v-1.094c0-1.841-1.284-3.379-3-3.789z"/><path d="m27 5h-2v20h2.382l-3.829 7.658c-.211.422-.895.421-1.105 0l-3.83-7.658h2.382v-14h-2v12h-3.618l5.276 10.554c.447.891 1.345 1.446 2.342 1.446s1.895-.555 2.342-1.447l5.276-10.553h-3.618z"/><path d="m19 7h2v2h-2z"/><path d="m11 3h2v2h-2z"/><path d="m9 29c.998 0 1.895-.555 2.342-1.447l5.276-10.553h-3.618v-10h-2v12h2.382l-3.829 7.658c-.211.423-.895.422-1.105 0l-3.83-7.658h2.382v-18h-2v16h-3.618l5.276 10.553c.447.892 1.344 1.447 2.342 1.447z"/></g></svg>